# xmcd CD database file
# Copyright (C) 1995-1998 Ti Kan
#
# Track frame offsets:
#	150
#	14572
#	33614
#	43959
#	61953
#	72600
#	87562
#	107967
#	124360
#	142197
#	160076
#	169044
#	187702
#
# Disc length: 2660 seconds
#
# Revision: 1
# Processed by: cddbd v1.4PL0 Copyright (c) Steve Scherf et al.
# Submitted via: CDex 1.30Release
#
DISCID=c40a620d
DTITLE=Various Artist - ZION compilation 22
DYEAR=2000
DGENRE=Country
TTITLE0=Gann Brothers--Here Comes The Bride
TTITLE1=Rhyme and Reason--Living A Dream
TTITLE2=Lesters--Where Living Waters Flow
TTITLE3=David Patillo--Standing Out
TTITLE4=McGruders--Warmin' Up
TTITLE5=Priscilla McGruder--Somebody's Praying For You
TTITLE6=The Bilderbacks--I Cry Holy
TTITLE7=The Laymen--The Shepherd Became A Lamb
TTITLE8=Tammy Kirkland--You Are
TTITLE9=Providence--To My Knees
TTITLE10=Living Sacrifice--Are You Ready
TTITLE11=Kim Ballestero--I Lean On You
TTITLE12=Jenny Pitchers (of the Lesters)--Ever Faithful God
EXTD=YEAR: 2000 ID3G:   2
EXTT0=
EXTT1=
EXTT2=
EXTT3=
EXTT4=
EXTT5=
EXTT6=
EXTT7=
EXTT8=
EXTT9=
EXTT10=
EXTT11=
EXTT12=
PLAYORDER=
